<?xml version="1.0" standalone="yes"?>
<svg xmlns="http://www.w3.org/2000/svg" width="108" height="124">
<path style="fill:#fefefe; stroke:none;" d="M0 0L0 38C2.40881 34.4191 4.93405 24.4955 10.0918 24.3264C12.322 24.2533 14.981 26.176 17 27L17 29C3.63281 36.7227 10.0094 62.3923 22 68C25.0231 64.0322 30.507 60.293 32.3958 55.7145C34.1021 51.5786 31.8515 46.4029 32.6227 42C34.1318 33.384 38.3067 27.126 43 20L30 20C31.8614 16.661 34.1012 11.929 38.0401 10.6929C42.9063 9.16577 48.067 13.0899 53 12.7724C56.4104 12.5529 59.6507 11.0669 63 10.4645C71.3523 8.96237 90.4005 11.6786 92.6427 22.0401C93.1899 24.5686 92.3182 27.4797 92 30C87.6806 27.7969 84.4754 23.9817 80 21.9159C74.3821 19.3227 68.0231 20 62 20C66.2866 27.5322 71.1476 34.1639 72.5208 43C73.1537 47.0722 70.5332 52.0637 72.1983 55.8302C74.1816 60.3165 79.9657 64.0181 83 68C86.8056 66.2093 89.1526 63.7107 91.2006 60C92.6496 57.3747 93.5874 53.6988 96.2747 52.0278C98.483 50.6546 101.52 51.0088 104 51C103.367 57.3487 100.766 63.0987 96.6744 67.9992C94.2847 70.8612 89.8964 73.5425 88.6929 77.1698C87.2201 81.6088 91.4283 88.6045 87.3966 92.3573C85.1641 94.4353 80.7401 93.1155 78 93C78.467 89.3045 78.9691 85.7352 79 82C74.3966 82.0127 69.5385 83.2265 65 82.5208C60.6459 81.8439 56.4348 79.3553 52 79.3696C47.9596 79.3826 43.9849 81.5671 40 82.2415C35.5483 82.9949 31.4479 82.191 27 82C27 87.6532 26.2336 93.7882 28.8395 99C36.3063 113.934 55.858 116.819 69 108C69 114.447 69.747 119.05 64 123C68.4687 124.875 74.1913 124 79 124L108 124L108 0L0 0z"/>
<path style="fill:#b5d5ed; stroke:none;" d="M17 10C18.2484 10.6848 18.5484 10.7488 20 11C18.7516 10.3152 18.4516 10.2512 17 10z"/>
<path style="fill:#6dacdf; stroke:none;" d="M31 19C39.516 19.0056 45.0804 20.3119 51 13C42.0715 10.4909 34.4032 8.3503 31 19z"/>
<path style="fill:#9bc6e9; stroke:none;" d="M39 10C40.2483 10.6848 40.5484 10.7488 42 11C40.7516 10.3152 40.4516 10.2512 39 10z"/>
<path style="fill:#dd79a8; stroke:none;" d="M62 10C65.6975 11.5515 70.0168 11 74 11C70.3025 9.44847 65.9832 10 62 10z"/>
<path style="fill:#6daedd; stroke:none;" d="M15.1481 12.0285C8.26844 16.063 14.6851 27.0974 21.7716 22.8202C28.7269 18.6222 22.4991 7.71772 15.1481 12.0285z"/>
<path style="fill:#c4dbf0; stroke:none;" d="M45.6667 11.3333C45.2222 11.7778 46.2778 11.7222 46.3333 11.6667C46.7778 11.2222 45.7222 11.2778 45.6667 11.3333z"/>
<path style="fill:#dd8ab0; stroke:none;" d="M58.6667 11.3333C58.2222 11.7778 59.2778 11.7222 59.3333 11.6667C59.7778 11.2222 58.7222 11.2778 58.6667 11.3333z"/>
<path style="fill:#d35792; stroke:none;" d="M52 68C47.3361 61.2928 41.6198 54.6913 41.2778 46C40.7312 32.1098 55.6491 18.596 69 19.0432C78.3616 19.3568 83.4672 25.764 91 30C91.1447 26.6289 92.6069 22.233 90.9576 19.1049C86.1817 10.0473 68.5312 9.69434 60 11.5177C45.6134 14.5927 34.1765 27.2469 33.0903 42C32.5598 49.2048 33.868 56.4308 36.9012 63C38.1707 65.7495 39.9748 69.3282 43.0934 70.3032C46.1559 71.2608 49.3996 69.3628 52 68z"/>
<path style="fill:#eab4ce; stroke:none;" d="M77.6667 11.3333C77.2222 11.7778 78.2778 11.7222 78.3333 11.6667C78.7778 11.2222 77.7222 11.2778 77.6667 11.3333z"/>
<path style="fill:#d983ac; stroke:none;" d="M55.6667 12.3333C55.2222 12.7778 56.2778 12.7222 56.3333 12.6667C56.7778 12.2223 55.7222 12.2778 55.6667 12.3333z"/>
<path style="fill:#9bc7e8; stroke:none;" d="M24.3333 13.6667C24.2778 13.7222 24.2222 14.7778 24.6667 14.3333C24.7222 14.2778 24.7778 13.2222 24.3333 13.6667z"/>
<path style="fill:#e7cfe3; stroke:none;" d="M51 13C52.2483 13.6848 52.5484 13.7488 54 14C52.7516 13.3152 52.4516 13.2512 51 13z"/>
<path style="fill:#f4d8e5; stroke:none;" d="M83.6667 13.3333C83.2222 13.7777 84.2778 13.7222 84.3333 13.6667C84.7778 13.2222 83.7222 13.2778 83.6667 13.3333z"/>
<path style="fill:#b96da5; stroke:none;" d="M46 17C48.8883 17.4096 50.1145 16.1529 52 14C49.7778 14.8102 48.0098 15.7386 46 17z"/>
<path style="fill:#f4d6e3; stroke:none;" d="M85.6667 14.3333C85.2222 14.7778 86.2778 14.7222 86.3333 14.6667C86.7778 14.2222 85.7222 14.2778 85.6667 14.3333z"/>
<path style="fill:#cee3f3; stroke:none;" d="M11 15L11 19C11.7102 17.2405 11.7102 16.7595 11 15z"/>
<path style="fill:#c3dcee; stroke:none;" d="M25 15L25 20C25.8299 17.9695 25.8299 17.0305 25 15z"/>
<path style="fill:#d3e5f1; stroke:none;" d="M30 18C32.579 20.9514 37.2941 20 41 20C37.5965 18.5713 33.6357 18.8656 30 18z"/>
<path style="fill:#e5a1c3; stroke:none;" d="M91 18L92 19L91 18z"/>
<path style="fill:#e18cb7; stroke:none;" d="M62.6667 19.3333C62.2222 19.7778 63.2778 19.7222 63.3333 19.6667C63.7778 19.2223 62.7222 19.2778 62.6667 19.3333z"/>
<path style="fill:#f0c4db; stroke:none;" d="M64 19C66.6127 20.0977 69.1645 19.9928 72 20C69.3873 18.9023 66.8355 19.0072 64 19z"/>
<path style="fill:#e38fb5; stroke:none;" d="M72.6667 19.3333C72.2222 19.7778 73.2778 19.7222 73.3333 19.6667C73.7778 19.2222 72.7222 19.2778 72.6667 19.3333z"/>
<path style="fill:#e289b0; stroke:none;" d="M92 19L92 22C92.6961 20.4463 92.6961 20.5537 92 19z"/>
<path style="fill:#a083b4; stroke:none;" d="M59 20C60.2483 20.6848 60.5484 20.7488 62 21C60.7517 20.3152 60.4516 20.2512 59 20z"/>
<path style="fill:#dd7fac; stroke:none;" d="M76.6667 20.3333C76.2222 20.7778 77.2778 20.7222 77.3333 20.6667C77.7778 20.2222 76.7222 20.2778 76.6667 20.3333z"/>
<path style="fill:#6daddd; stroke:none;" d="M71 55C72.758 45.5303 72.2206 35.4276 67.0702 27.0046C64.7463 23.2041 59.8349 18.5936 55.3765 22.7423C51.7344 26.1315 58.1086 31.2151 59.8665 34C61.7358 36.9613 63.048 40.5086 63.446 44C63.7186 46.3919 62.7358 49.4105 64.0671 51.5702C65.4468 53.8083 68.6849 54.3197 71 55z"/>
<path style="fill:#f3d7e4; stroke:none;" d="M92 22L92 27C92.8299 24.9695 92.8299 24.0305 92 22z"/>
<path style="fill:#6daedd; stroke:none;" d="M8 23C-2.475 40.4007 -2.53825 66.3455 18 77C18.6875 74.5829 20.406 71.5498 20.0069 69C19.513 65.8445 16.4098 63.4505 14.6088 61C11.7616 57.1261 9.69078 52.8162 9.17361 48C8.76147 44.1619 9.16614 40.504 10.8248 37C12.0784 34.3518 15.1557 31.1382 14.8866 28.044C14.5827 24.55 10.7848 23.5639 8 23z"/>
<path style="fill:#bcd7ef; stroke:none;" d="M7 24L8 25L7 24z"/>
<path style="fill:#eabcd0; stroke:none;" d="M39 24L40 25L39 24z"/>
<path style="fill:#dd7ca8; stroke:none;" d="M91 24L91 27C91.6961 25.4463 91.6961 25.5537 91 24z"/>
<path style="fill:#fefefe; stroke:none;" d="M51 25C48.3113 28.936 44.8034 32.4502 43.1335 37C41.4074 41.7029 42 47.0776 42 52C49.2427 50.5059 54.7393 50.2113 62 52C62 41.0185 62.5859 30.4179 51 25z"/>
<path style="fill:#eaaec7; stroke:none;" d="M85 25L86 26L85 25z"/>
<path style="fill:#ecb8d0; stroke:none;" d="M50 26L51 27L50 26z"/>
<path style="fill:#dae9f2; stroke:none;" d="M16.3333 27.6667C16.2778 27.7222 16.2222 28.7778 16.6667 28.3333C16.7222 28.2778 16.7778 27.2222 16.3333 27.6667z"/>
<path style="fill:#e289af; stroke:none;" d="M37.3333 27.6667C37.2778 27.7222 37.2222 28.7778 37.6667 28.3333C37.7222 28.2778 37.7778 27.2222 37.3333 27.6667z"/>
<path style="fill:#ebb7cf; stroke:none;" d="M49 27L50 28L49 27z"/>
<path style="fill:#e9afc8; stroke:none;" d="M91 27L91 30C91.6961 28.4463 91.6961 28.5537 91 27z"/>
<path style="fill:#eab0cb; stroke:none;" d="M48 28L49 29L48 28z"/>
<path style="fill:#e084ac; stroke:none;" d="M36.3333 29.6667C36.2778 29.7222 36.2222 30.7778 36.6667 30.3333C36.7222 30.2778 36.7778 29.2222 36.3333 29.6667z"/>
<path style="fill:#e6a2c4; stroke:none;" d="M47 29L48 30L47 29z"/>
<path style="fill:#e290b3; stroke:none;" d="M35.3333 31.6667C35.2778 31.7222 35.2222 32.7778 35.6667 32.3333C35.7222 32.2778 35.7778 31.2222 35.3333 31.6667z"/>
<path style="fill:#e8abc5; stroke:none;" d="M45 32L46 33L45 32z"/>
<path style="fill:#d1e5f4; stroke:none;" d="M12.3333 33.6667C12.2778 33.7222 12.2222 34.7778 12.6667 34.3333C12.7222 34.2778 12.7778 33.2222 12.3333 33.6667z"/>
<path style="fill:#b7d5ea; stroke:none;" d="M1.33333 35.6667C1.27778 35.7222 1.22223 36.7778 1.66667 36.3333C1.72222 36.2778 1.77777 35.2222 1.33333 35.6667z"/>
<path style="fill:#c5dff0; stroke:none;" d="M11.3333 35.6667C11.2778 35.7222 11.2222 36.7778 11.6667 36.3333C11.7222 36.2778 11.7778 35.2222 11.3333 35.6667z"/>
<path style="fill:#a7ceed; stroke:none;" d="M10.3333 37.6667C10.2778 37.7222 10.2222 38.7778 10.6667 38.3333C10.7222 38.2778 10.7778 37.2222 10.3333 37.6667z"/>
<path style="fill:#e59fbe; stroke:none;" d="M33.3333 37.6667C33.2778 37.7222 33.2222 38.7778 33.6667 38.3333C33.7222 38.2778 33.7778 37.2222 33.3333 37.6667z"/>
<path style="fill:#d5568e; stroke:none;" d="M97.1481 38.0432C90.6937 41.6354 96.2492 52.1509 102.682 47.9684C108.027 44.4935 103.442 34.5405 97.1481 38.0432z"/>
<path style="fill:#b5d5eb; stroke:none;" d="M0 38L0 42C0.710206 40.2405 0.710205 39.7595 0 38z"/>
<path style="fill:#a1c9e6; stroke:none;" d="M71.3333 38.6667C71.2778 38.7222 71.2222 39.7778 71.6667 39.3333C71.7222 39.2778 71.7778 38.2222 71.3333 38.6667z"/>
<path style="fill:#ecbed2; stroke:none;" d="M95 38L96 39L95 38z"/>
<path style="fill:#aed1e9; stroke:none;" d="M9 39L9 51C10.5124 47.3957 10.5124 42.6043 9 39z"/>
<path style="fill:#e0edf7; stroke:none;" d="M62 39L62 52C63.5909 48.2087 63.5909 42.7913 62 39z"/>
<path style="fill:#dd84ae; stroke:none;" d="M105 40L105 46C105.951 43.7147 105.951 42.2853 105 40z"/>
<path style="fill:#eab4cd; stroke:none;" d="M93 41L93 45C93.7102 43.2405 93.7102 42.7595 93 41z"/>
<path style="fill:#f6e1eb; stroke:none;" d="M106 41L106 45C106.71 43.2405 106.71 42.7595 106 41z"/>
<path style="fill:#9bc8e7; stroke:none;" d="M0 42L0 52C1.34572 48.793 1.34572 45.207 0 42z"/>
<path style="fill:#efc7da; stroke:none;" d="M32 42L32 49C33.0595 46.4657 33.0595 44.5343 32 42z"/>
<path style="fill:#e290b4; stroke:none;" d="M41 42L41 49C42.0595 46.4657 42.0595 44.5343 41 42z"/>
<path style="fill:#d6e7f3; stroke:none;" d="M72 42L72 49C73.0595 46.4657 73.0595 44.5343 72 42z"/>
<path style="fill:#8ec0e5; stroke:none;" d="M63 43L63 48C63.8299 45.9695 63.8299 45.0305 63 43z"/>
<path style="fill:#e59fbf; stroke:none;" d="M94 46L95 47L94 46z"/>
<path style="fill:#e8a9c5; stroke:none;" d="M96 48L97 49L96 48z"/>
<path style="fill:#f0cadd; stroke:none;" d="M97 49C98.7691 49.7789 100.036 49.9124 102 50C100.231 49.2211 98.9641 49.0876 97 49z"/>
<path style="fill:#f9e4cb; stroke:none;" d="M48 50C50.3315 50.9845 52.4567 50.9813 55 51C52.6684 50.0155 50.5433 50.0187 48 50z"/>
<path style="fill:#c8def2; stroke:none;" d="M10.3333 51.6667C10.2778 51.7222 10.2222 52.7778 10.6667 52.3333C10.7222 52.2778 10.7778 51.2222 10.3333 51.6667z"/>
<path style="fill:#f2c99e; stroke:none;" d="M44.6667 51.3333C44.2222 51.7778 45.2778 51.7222 45.3333 51.6667C45.7778 51.2222 44.7222 51.2778 44.6667 51.3333z"/>
<path style="fill:#eba757; stroke:none;" d="M43 52C43.3431 54.8061 44.1552 57.3046 45 60C51.5236 59.1763 56.9493 59.0649 63 62.1883C67.4964 64.5093 71.8416 71.0146 76.9985 71.3426C79.4356 71.4976 81.8762 69.9895 84 69C74.9827 54.5837 59.3904 48.9571 43 52z"/>
<path style="fill:#f0c999; stroke:none;" d="M58 51C59.2484 51.6848 59.5484 51.7488 61 52C59.7517 51.3152 59.4516 51.2512 58 51z"/>
<path style="fill:#da83ab; stroke:none;" d="M95 51C97.8017 52.1901 100.516 52.1139 103 54C104.541 49.9113 97.6161 51 95 51z"/>
<path style="fill:#fefefe; stroke:none;" d="M0 52L0 103C3.01115 101.325 5.58013 101.038 9 101C10.4785 106.261 16.5642 104.015 21 104C18.7393 98.944 16.6088 93.583 16.1852 88C15.9253 84.5748 17.6564 80.5513 16.3819 77.2855C14.8196 73.282 10.1239 70.3666 7.52932 67C3.96349 62.3731 2.71215 56.9824 0 52z"/>
<path style="fill:#e491b7; stroke:none;" d="M33.3333 52.6667C33.2778 52.7222 33.2222 53.7778 33.6667 53.3333C33.7222 53.2778 33.7778 52.2222 33.3333 52.6667z"/>
<path style="fill:#b3b096; stroke:none;" d="M62.6667 52.3333C62.2222 52.7778 63.2778 52.7222 63.3333 52.6667C63.7778 52.2222 62.7222 52.2778 62.6667 52.3333z"/>
<path style="fill:#b8d8ee; stroke:none;" d="M71.3333 52.6667C71.2778 52.7222 71.2222 53.7778 71.6667 53.3333C71.7222 53.2778 71.7778 52.2222 71.3333 52.6667z"/>
<path style="fill:#d2568e; stroke:none;" d="M94 52C92.8292 63.357 81.5221 71.2196 71 73.3272C63.9666 74.7359 58.5035 73.1326 53 79C74.8788 87.0343 99.8126 76.6607 103 52L94 52z"/>
<path style="fill:#96c4e5; stroke:none;" d="M1 53L1 56C1.6961 54.4463 1.6961 54.5537 1 53z"/>
<path style="fill:#98c7e4; stroke:none;" d="M10.3333 53.6667C10.2778 53.7222 10.2222 54.7778 10.6667 54.3333C10.7222 54.2778 10.7778 53.2222 10.3333 53.6667z"/>
<path style="fill:#f3d1d7; stroke:none;" d="M33 54L33 57C33.6961 55.4463 33.6961 55.5537 33 54z"/>
<path style="fill:#8aacb6; stroke:none;" d="M68.6667 54.3333C68.2222 54.7778 69.2778 54.7222 69.3333 54.6667C69.7778 54.2222 68.7222 54.2778 68.6667 54.3333z"/>
<path style="fill:#ebc0d5; stroke:none;" d="M103.333 54.6667C103.278 54.7222 103.222 55.7778 103.667 55.3333C103.722 55.2778 103.778 54.2222 103.333 54.6667z"/>
<path style="fill:#aed2ed; stroke:none;" d="M11.3333 55.6667C11.2778 55.7222 11.2222 56.7778 11.6667 56.3333C11.7222 56.2778 11.7778 55.2222 11.3333 55.6667z"/>
<path style="fill:#abaf96; stroke:none;" d="M69.6667 55.3333C69.2222 55.7778 70.2778 55.7222 70.3333 55.6667C70.7778 55.2222 69.7222 55.2778 69.6667 55.3333z"/>
<path style="fill:#dd85ad; stroke:none;" d="M93.3333 55.6667C93.2778 55.7222 93.2222 56.7778 93.6667 56.3333C93.7222 56.2778 93.7778 55.2222 93.3333 55.6667z"/>
<path style="fill:#db7da9; stroke:none;" d="M102 55L102 58C102.696 56.4463 102.696 56.5537 102 55z"/>
<path style="fill:#eaa759; stroke:none;" d="M34 56C12.6167 69.5914 10.73 103.036 33.0008 117.189C43.7727 124.035 56.1205 122.451 68 120C68.0113 115.92 68.4898 112.037 69 108C62.1499 111.795 56.1732 115.284 48 113.62C36.1631 111.211 23.9926 97.5172 25.1991 85C26.0009 76.681 31.3917 69.6679 38 65C36.812 61.9218 35.7605 58.7837 34 56z"/>
<path style="fill:#f5d8ba; stroke:none;" d="M31 57L32 58L31 57z"/>
<path style="fill:#df91b3; stroke:none;" d="M92.3333 57.6667C92.2778 57.7222 92.2222 58.7778 92.6667 58.3333C92.7222 58.2778 92.7778 57.2222 92.3333 57.6667z"/>
<path style="fill:#f1ba7f; stroke:none;" d="M48 59C50.6127 60.0977 53.1645 59.9928 56 60C53.3873 58.9023 50.8355 59.0072 48 59z"/>
<path style="fill:#de8ab2; stroke:none;" d="M91.3333 59.6667C91.2778 59.7222 91.2222 60.7778 91.6667 60.3333C91.7222 60.2778 91.7778 59.2222 91.3333 59.6667z"/>
<path style="fill:#e09aae; stroke:none;" d="M46.3333 60.6667C46.2778 60.7222 46.2222 61.7778 46.6667 61.3333C46.7222 61.2778 46.7778 60.2222 46.3333 60.6667z"/>
<path style="fill:#fbebdc; stroke:none;" d="M47 60C50.4324 61.4403 54.2998 61 58 61C54.5676 59.5597 50.7002 60 47 60z"/>
<path style="fill:#c3ad7f; stroke:none;" d="M58.6667 60.3333C58.2222 60.7778 59.2778 60.7222 59.3333 60.6667C59.7778 60.2222 58.7222 60.2778 58.6667 60.3333z"/>
<path style="fill:#f2d7e2; stroke:none;" d="M101.333 60.6667C101.278 60.7222 101.222 61.7778 101.667 61.3333C101.722 61.2778 101.778 60.2222 101.333 60.6667z"/>
<path style="fill:#fefefe; stroke:none;" d="M47 61C50.4061 67.3476 54.4363 66.9604 58 61L47 61z"/>
<path style="fill:#6caddb; stroke:none;" d="M58 61C50.5493 70.5705 40.8221 74.4862 29 73L27 81C42.1887 84.6161 60.0309 78.6365 67 64C64.0501 62.6932 61.1438 61.7272 58 61z"/>
<path style="fill:#a6ad9d; stroke:none;" d="M60.6667 61.3333C60.2222 61.7778 61.2778 61.7222 61.3333 61.6667C61.7778 61.2222 60.7222 61.2778 60.6667 61.3333z"/>
<path style="fill:#e6aac6; stroke:none;" d="M90 61L91 62L90 61z"/>
<path style="fill:#ebbdd1; stroke:none;" d="M47 62L48 63L47 62z"/>
<path style="fill:#c1ad89; stroke:none;" d="M63.6667 62.3333C63.2222 62.7778 64.2778 62.7222 64.3333 62.6667C64.7778 62.2222 63.7222 62.2778 63.6667 62.3333z"/>
<path style="fill:#e199b7; stroke:none;" d="M100 62L101 63L100 62z"/>
<path style="fill:#bddbf2; stroke:none;" d="M56 63L57 64L56 63z"/>
<path style="fill:#e6a4c1; stroke:none;" d="M99 64L100 65L99 64z"/>
<path style="fill:#f6d8b8; stroke:none;" d="M23 65L24 66L23 65z"/>
<path style="fill:#f7dee4; stroke:none;" d="M36.6667 65.3333C36.2222 65.7778 37.2778 65.7222 37.3333 65.6667C37.7778 65.2222 36.7222 65.2778 36.6667 65.3333z"/>
<path style="fill:#fefefe; stroke:none;" d="M66 65L62 72L74 72C72.1959 68.1752 70.091 66.1515 66 65z"/>
<path style="fill:#f0cc9b; stroke:none;" d="M81 65L82 66L81 65z"/>
<path style="fill:#fefefe; stroke:none;" d="M31 72L42 72C39.0373 65.2304 34.3515 65.7484 31 72z"/>
<path style="fill:#e8a4c2; stroke:none;" d="M39 67L40 68L39 67z"/>
<path style="fill:#e3a3bf; stroke:none;" d="M97 67L98 68L97 67z"/>
<path style="fill:#c6ab7b; stroke:none;" d="M21.3333 68.6667C21.2778 68.7222 21.2222 69.7778 21.6667 69.3333C21.7222 69.2778 21.7778 68.2222 21.3333 68.6667z"/>
<path style="fill:#cdad79; stroke:none;" d="M20.3333 70.6667C20.2778 70.7222 20.2222 71.7778 20.6667 71.3333C20.7222 71.2778 20.7778 70.2222 20.3333 70.6667z"/>
<path style="fill:#f5daba; stroke:none;" d="M31 70L32 71L31 70z"/>
<path style="fill:#a57fb9; stroke:none;" d="M46.6667 70.3333C46.2222 70.7778 47.2778 70.7222 47.3333 70.6667C47.7778 70.2222 46.7222 70.2778 46.6667 70.3333z"/>
<path style="fill:#b5c2c3; stroke:none;" d="M30.3333 71.6667C30.2778 71.7222 30.2222 72.7778 30.6667 72.3333C30.7222 72.2778 30.7778 71.2222 30.3333 71.6667z"/>
<path style="fill:#c4dcee; stroke:none;" d="M42 71C40.5215 71.9857 40.7968 72 39 72C40.5224 72.8551 42.9447 73.2884 42 71z"/>
<path style="fill:#a47aaf; stroke:none;" d="M43 71C44.2484 71.6848 44.5484 71.7488 46 72C44.7516 71.3152 44.4516 71.2512 43 71z"/>
<path style="fill:#e596b0; stroke:none;" d="M74.3333 71.6667C74.2777 71.7223 74.2222 72.7778 74.6667 72.3333C74.7222 72.2778 74.7778 71.2222 74.3333 71.6667z"/>
<path style="fill:#caae85; stroke:none;" d="M19.3333 72.6667C19.2778 72.7222 19.2222 73.7778 19.6667 73.3333C19.7222 73.2778 19.7778 72.2222 19.3333 72.6667z"/>
<path style="fill:#dbebf6; stroke:none;" d="M31 72C33.6127 73.0977 36.1645 72.9928 39 73C36.3873 71.9023 33.8355 72.0072 31 72z"/>
<path style="fill:#e09cba; stroke:none;" d="M61.6667 72.3333C61.2222 72.7778 62.2778 72.7222 62.3333 72.6667C62.7778 72.2222 61.7222 72.2778 61.6667 72.3333z"/>
<path style="fill:#f4d7e4; stroke:none;" d="M63 72C66.4324 73.4403 70.2998 73 74 73C70.5676 71.5597 66.7002 72 63 72z"/>
<path style="fill:#8cbfe3; stroke:none;" d="M32 73C34.3316 73.9845 36.4567 73.9813 39 74C36.6684 73.0155 34.5433 73.0187 32 73z"/>
<path style="fill:#be65a4; stroke:none;" d="M57 76C58.9486 75.0643 59.5502 74.6076 61 73C59.0515 73.9357 58.4498 74.3924 57 76z"/>
<path style="fill:#dd7da6; stroke:none;" d="M64 73C66.3316 73.9845 68.4566 73.9813 71 74C68.6685 73.0155 66.5433 73.0187 64 73z"/>
<path style="fill:#aaac93; stroke:none;" d="M18.3333 74.6667C18.2778 74.7222 18.2222 75.7778 18.6667 75.3333C18.7222 75.2778 18.7778 74.2222 18.3333 74.6667z"/>
<path style="fill:#9fb2a4; stroke:none;" d="M28.3333 74.6667C28.2778 74.7222 28.2222 75.7778 28.6667 75.3333C28.7222 75.2778 28.7778 74.2222 28.3333 74.6667z"/>
<path style="fill:#e394bc; stroke:none;" d="M90 74L91 75L90 74z"/>
<path style="fill:#a5ad9c; stroke:none;" d="M27.3333 76.6667C27.2778 76.7222 27.2222 77.7778 27.6667 77.3333C27.7222 77.2778 27.7778 76.2222 27.3333 76.6667z"/>
<path style="fill:#f6dabb; stroke:none;" d="M17.3333 77.6667C17.2778 77.7222 17.2222 78.7778 17.6667 78.3333C17.7222 78.2778 17.7778 77.2222 17.3333 77.6667z"/>
<path style="fill:#eaa757; stroke:none;" d="M79 80C80.0327 84.3377 80 88.5615 80 93L88 93L88 77L79 80z"/>
<path style="fill:#bbbbda; stroke:none;" d="M52 78L53 79L52 78z"/>
<path style="fill:#b6ae8e; stroke:none;" d="M26.3333 79.6667C26.2778 79.7222 26.2222 80.7778 26.6667 80.3333C26.7222 80.2778 26.7778 79.2222 26.3333 79.6667z"/>
<path style="fill:#ecbcd3; stroke:none;" d="M54 79L55 80L54 79z"/>
<path style="fill:#eec99c; stroke:none;" d="M88 80L88 93C89.5909 89.2087 89.5909 83.7913 88 80z"/>
<path style="fill:#fbf0e3; stroke:none;" d="M26 81L26 92C27.4309 88.59 27.4309 84.41 26 81z"/>
<path style="fill:#c0dbec; stroke:none;" d="M27.6667 81.3333C27.2222 81.7778 28.2778 81.7222 28.3333 81.6667C28.7778 81.2222 27.7222 81.2778 27.6667 81.3333z"/>
<path style="fill:#b1d3ea; stroke:none;" d="M42 81C43.2484 81.6848 43.5484 81.7488 45 82C43.7516 81.3152 43.4516 81.2512 42 81z"/>
<path style="fill:#e49bbb; stroke:none;" d="M60.6667 81.3333C60.2222 81.7778 61.2778 81.7222 61.3333 81.6667C61.7778 81.2222 60.7222 81.2778 60.6667 81.3333z"/>
<path style="fill:#f8dfcd; stroke:none;" d="M75 81C76.5061 81.683 77.3148 81.8259 79 82C77.494 81.317 76.6852 81.1741 75 81z"/>
<path style="fill:#f1c795; stroke:none;" d="M79 81L79 93C80.5124 89.3957 80.5124 84.6043 79 81z"/>
<path style="fill:#f7dcbe; stroke:none;" d="M16 82L16 91C17.2561 88.0059 17.2561 84.9941 16 82z"/>
<path style="fill:#efc087; stroke:none;" d="M25 82L25 91C26.2561 88.0059 26.2561 84.9941 25 82z"/>
<path style="fill:#d1e5f3; stroke:none;" d="M32 82C34.3315 82.9845 36.4567 82.9813 39 83C36.6684 82.0155 34.5433 82.0187 32 82z"/>
<path style="fill:#f3d2e2; stroke:none;" d="M64 82C66.3316 82.9845 68.4566 82.9813 71 83C68.6684 82.0155 66.5433 82.0187 64 82z"/>
<path style="fill:#f5e4ce; stroke:none;" d="M78 89L78 93C78.7102 91.2405 78.7102 90.7595 78 89z"/>
<path style="fill:#f2cc9d; stroke:none;" d="M26 92L26 95C26.6961 93.4463 26.6961 93.5537 26 92z"/>
<path style="fill:#f1cea3; stroke:none;" d="M17 93L17 96C17.6961 94.4463 17.6961 94.5537 17 93z"/>
<path style="fill:#f5d3b3; stroke:none;" d="M83 93C84.769 93.7789 86.0359 93.9124 88 94C86.231 93.2211 84.9641 93.0876 83 93z"/>
<path style="fill:#eec28b; stroke:none;" d="M80 95C81.5061 95.683 82.3148 95.8259 84 96C82.494 95.317 81.6852 95.1741 80 95z"/>
<path style="fill:#e8a757; stroke:none;" d="M78.6034 97.0278C73.5215 101.039 80.0244 109.699 85.6821 105.971C91.8553 101.904 84.2816 92.5454 78.6034 97.0278z"/>
<path style="fill:#eab675; stroke:none;" d="M76 98L76 104C76.9511 101.715 76.9511 100.285 76 98z"/>
<path style="fill:#f8ecdc; stroke:none;" d="M75 99L75 103C75.7102 101.241 75.7102 100.759 75 99z"/>
<path style="fill:#f5dcbd; stroke:none;" d="M88 99L88 103C88.7102 101.241 88.7102 100.759 88 99z"/>
<path style="fill:#f8e7d2; stroke:none;" d="M19.3333 100.667C19.2778 100.722 19.2222 101.778 19.6667 101.333C19.7222 101.278 19.7778 100.222 19.3333 100.667z"/>
<path style="fill:#ffffff; stroke:none;" d="M0 124L43 124C40.3062 119.388 31.9704 117.83 27 116C27.2685 111.367 23.7401 105.589 18.9105 104.321C14.7692 103.234 11.5639 105.153 9 101C6.80613 101.008 3.58109 100.534 1.74228 102.028C0.0261173 103.422 0.0785771 106.002 0.0154321 108.001C-0.152752 113.324 0 118.674 0 124z"/>
<path style="fill:#f2d0a2; stroke:none;" d="M32 104L33 105L32 104z"/>
<path style="fill:#f4d3aa; stroke:none;" d="M33 105L34 106L33 105z"/>
<path style="fill:#f2cfa2; stroke:none;" d="M77 105L78 106L77 105z"/>
<path style="fill:#f2cfb2; stroke:none;" d="M22 106L23 107L22 106z"/>
<path style="fill:#f3d2a8; stroke:none;" d="M34 106L35 107L34 106z"/>
<path style="fill:#f1d3ad; stroke:none;" d="M78 106L79 107L78 106z"/>
<path style="fill:#f0cd9e; stroke:none;" d="M35 107L36 108L35 107z"/>
<path style="fill:#eec794; stroke:none;" d="M80 107C81.5061 107.683 82.3148 107.826 84 108C82.494 107.317 81.6852 107.174 80 107z"/>
<path style="fill:#f6cba1; stroke:none;" d="M25 109L26 110L25 109z"/>
<path style="fill:#f5e0c6; stroke:none;" d="M41.6667 111.333C41.2222 111.778 42.2778 111.722 42.3333 111.667C42.7778 111.222 41.7222 111.278 41.6667 111.333z"/>
<path style="fill:#f9e6cf; stroke:none;" d="M61 111C62.2484 111.685 62.5484 111.749 64 112C62.7517 111.315 62.4516 111.251 61 111z"/>
<path style="fill:#f1dbc2; stroke:none;" d="M68 111L68 117C68.9511 114.715 68.9511 113.285 68 111z"/>
<path style="fill:#faf1e4; stroke:none;" d="M44 112C45.5061 112.683 46.3148 112.826 48 113C46.494 112.317 45.6852 112.174 44 112z"/>
<path style="fill:#efc088; stroke:none;" d="M60.6667 112.333C60.2222 112.778 61.2778 112.722 61.3333 112.667C61.7778 112.222 60.7222 112.278 60.6667 112.333z"/>
<path style="fill:#f5ddc3; stroke:none;" d="M46 113C49.4324 114.44 53.2998 114 57 114C53.5676 112.56 49.7002 113 46 113z"/>
<path style="fill:#eaba80; stroke:none;" d="M57.6667 113.333C57.2222 113.778 58.2778 113.722 58.3333 113.667C58.7778 113.222 57.7222 113.278 57.6667 113.333z"/>
<path style="fill:#e3e2e1; stroke:none;" d="M27 115C28.8681 116.769 30.6917 117.837 33 119C31.4593 115.94 30.4344 114.931 27 115z"/>
<path style="fill:#c8c3bf; stroke:none;" d="M33 117C34.4463 119.283 35.3106 119.582 38 120L33 117z"/>
<path style="fill:#bbb0aa; stroke:none;" d="M68 117C65.7583 120.667 62.0406 121.163 58 122C61.8623 123.605 69.9331 122.728 68 117z"/>
<path style="fill:#c7c3c0; stroke:none;" d="M43 122C46.7096 126.245 58.5939 124 64 124C58.0754 121.514 49.4863 122.82 43 122z"/>
<path style="fill:#dba668; stroke:none;" d="M46 122C49.6975 123.552 54.0168 123 58 123C54.3025 121.448 49.9832 122 46 122z"/>
</svg>
